
<svg width="114px" height="77px" viewBox="0 0 114 77" version="1.1" xmlns="http://www.w3.org/2000/svg" xmlns:xlink="http://www.w3.org/1999/xlink">
    <!-- Generator: Sketch 43.1 (39012) - http://www.bohemiancoding.com/sketch -->
    <desc>Created with Sketch.</desc>
    <defs></defs>
    <g id="Page-1" stroke="none" stroke-width="1" fill-rule="evenodd" fill="white">
        <g id="Homepage" transform="translate(-663.000000, -56.000000)" fill-rule="nonzero">
            <g id="behangmotief-logo" transform="translate(663.000000, 56.000000)">
                <g id="Group">
                    <path d="M21.3453125,20.9511628 C20.9890625,21.2794574 20.5734375,21.6375969 20.1578125,21.9658915 C20.6921875,22.4732558 21.1078125,23.1596899 21.375,24.0251938 C21.671875,24.8608527 21.790625,25.7263566 21.7609375,26.5620155 C21.7015625,27.5767442 21.49375,28.472093 21.078125,29.2182171 C20.6625,29.994186 20.0984375,30.770155 19.3265625,31.546124 L19.35625,31.546124 C18.821875,32.1430233 18.1984375,32.7399225 17.45625,33.3069767 C16.74375,33.874031 15.971875,34.3813953 15.1703125,34.8589147 C14.36875,35.3364341 13.5671875,35.7841085 12.765625,36.172093 C11.9640625,36.5600775 11.221875,36.8883721 10.509375,37.1569767 L10.5390625,37.1569767 C9.85625,37.4554264 9.321875,37.6046512 8.8765625,37.6046512 C8.55,37.6046512 8.253125,37.5748062 7.9859375,37.4554264 C7.71875,37.3360465 7.421875,37.0674419 7.125,36.8585271 C6.709375,36.5600775 6.115625,36.201938 5.640625,35.7841085 C5.165625,35.3364341 4.7203125,34.7693798 4.3640625,34.0232558 L4.39375,34.0531008 C4.15625,33.6352713 4.0078125,33.2771318 3.859375,32.9488372 C3.740625,32.6205426 3.68125,32.2325581 3.740625,31.7251938 C3.7703125,31.5162791 3.7703125,31.3073643 3.8296875,31.0984496 C3.859375,30.8895349 3.91875,30.6806202 3.978125,30.4120155 C4.3046875,28.8899225 4.690625,27.2782946 5.165625,25.5174419 C5.640625,23.7565891 6.115625,21.9658915 6.590625,20.1453488 C7.065625,18.3248062 7.540625,16.4744186 7.9859375,14.624031 C8.43125,12.7736434 8.55,10.1472868 9.1140625,9.37131783 C9.3515625,9.01317829 10.509375,8.65503876 11.3109375,8.32674419 C12.1125,7.99844961 12.94375,7.7 13.775,7.46124031 C14.60625,7.22248062 15.4671875,7.01356589 16.328125,6.86434109 C17.1890625,6.71511628 17.990625,6.6255814 18.7625,6.6255814 C19.771875,6.59573643 20.6921875,6.71511628 21.5234375,6.98372093 C22.3546875,7.22248062 23.0078125,7.64031008 23.453125,8.2372093 C23.7203125,8.59534884 23.9578125,8.98333333 24.225,9.40116279 C24.4625,9.81899225 24.6703125,10.2666667 24.878125,10.744186 C25.05625,11.2217054 25.2046875,11.7290698 25.29375,12.296124 C25.3828125,12.8333333 25.4125,13.4302326 25.4125,14.0271318 C25.353125,15.1612403 25.05625,16.2356589 24.4921875,17.2503876 C23.928125,18.2651163 23.2453125,19.1903101 22.4734375,19.996124 C22.0578125,20.2647287 21.7015625,20.6228682 21.3453125,20.9511628 Z M11.4,25.9651163 C11.1625,26.7112403 10.9546875,27.4275194 10.746875,28.1139535 C10.5390625,28.8003876 10.3015625,29.4569767 10.09375,30.1732558 C10.865625,29.8748062 11.578125,29.5166667 12.23125,29.1585271 C12.884375,28.7705426 13.41875,28.4124031 13.89375,28.0244186 C14.36875,27.6364341 14.725,27.2484496 14.9921875,26.8903101 C15.259375,26.5023256 15.4375,26.144186 15.4375,25.8457364 C15.4375,25.6965116 15.2890625,25.5472868 15.021875,25.4577519 C14.784375,25.3682171 14.428125,25.3383721 13.953125,25.3383721 C13.2703125,25.3383721 12.409375,25.5472868 11.4,25.9651163 Z M13.6859375,18.8918605 C14.5765625,18.474031 15.3484375,17.9965116 16.090625,17.4593023 C16.803125,16.951938 17.4265625,16.4147287 17.93125,15.9073643 C18.4359375,15.4 18.8515625,14.9224806 19.11875,14.5046512 C19.3859375,14.0569767 19.534375,13.7286822 19.5640625,13.4302326 C19.5640625,13.2511628 19.2671875,13.1914729 18.6734375,13.2213178 C18.2578125,13.2213178 17.753125,13.3406977 17.159375,13.5197674 C16.565625,13.6988372 15.9125,13.9972868 15.2,14.3554264 C14.9921875,14.9224806 14.784375,15.5492248 14.5765625,16.175969 C14.36875,16.8027132 14.1609375,17.4593023 13.953125,18.1755814 C13.834375,18.444186 13.7453125,18.6829457 13.6859375,18.8918605 Z" id="Shape"></path>
                    <path d="M28.4703125,8.35658915 C29.1828125,8.11782946 29.9546875,7.84922481 30.7859375,7.58062016 C31.6171875,7.3120155 32.5078125,7.04341085 33.3984375,6.7748062 C34.31875,6.50620155 35.2390625,6.29728682 36.1890625,6.05852713 C37.1390625,5.8496124 38.0890625,5.67054264 39.009375,5.55116279 L39.128125,5.55116279 C39.6921875,5.49147287 40.1078125,5.58100775 40.4046875,5.81976744 C40.7015625,6.05852713 40.9390625,6.41666667 41.0578125,6.92403101 L41.0578125,6.89418605 C41.20625,7.34186047 41.325,7.7 41.384375,7.99844961 C41.44375,8.29689922 41.503125,8.59534884 41.5328125,8.95348837 L41.503125,8.92364341 C41.5625,9.19224806 41.5921875,9.43100775 41.5921875,9.72945736 C41.5921875,10.2666667 41.4734375,10.6546512 41.2359375,10.9232558 C41.028125,11.1620155 40.6125,11.3709302 40.0484375,11.4903101 C39.1578125,11.6992248 38.178125,11.9081395 37.1984375,12.1468992 C36.21875,12.3856589 34.496875,12.5348837 34.08125,12.9228682 C33.8140625,13.1914729 33.60625,14.3852713 33.3390625,15.1910853 C33.071875,15.9968992 32.8046875,16.8027132 32.5375,17.6085271 C33.309375,17.4294574 34.08125,17.2802326 34.853125,17.1906977 C34.9421875,17.1906977 34.971875,17.1906977 35.03125,17.1608527 C35.5359375,17.1011628 35.9515625,17.1608527 36.2484375,17.3100775 C36.5453125,17.4593023 36.7828125,17.7875969 36.9609375,18.2651163 L36.9609375,18.2352713 C37.16875,18.6829457 37.2875,19.1007752 37.3765625,19.5186047 C37.465625,19.9364341 37.525,20.3244186 37.6140625,20.7422481 L37.584375,20.7124031 C37.64375,21.0108527 37.6734375,21.2496124 37.6734375,21.4286822 C37.6734375,21.7868217 37.5546875,22.0554264 37.346875,22.294186 C37.1390625,22.5329457 36.871875,22.7418605 36.515625,22.8910853 C36.1890625,23.0403101 35.803125,23.1895349 35.3578125,23.3089147 C34.9125,23.4282946 34.4671875,23.5775194 33.9921875,23.6968992 L34.021875,23.6968992 C33.3390625,23.9356589 32.65625,24.1744186 32.003125,24.3833333 C31.35,24.5922481 30.340625,24.7713178 30.0734375,25.0399225 C29.8953125,25.2189922 29.746875,25.9352713 29.5984375,26.4426357 C29.45,26.95 29.33125,27.3976744 29.271875,27.755814 C29.9546875,27.5468992 30.6671875,27.3081395 31.409375,27.0992248 C32.1515625,26.8903101 32.9234375,26.7410853 33.725,26.6217054 C34.2,26.5620155 34.5859375,26.6217054 34.8828125,26.8007752 C35.1796875,26.979845 35.3875,27.3081395 35.5359375,27.755814 L35.5359375,27.725969 C35.74375,28.1736434 35.921875,28.7108527 36.0703125,29.277907 C36.21875,29.8449612 36.278125,30.3821705 36.278125,30.9193798 C36.278125,31.3968992 36.159375,31.7251938 35.9515625,31.9341085 C35.74375,32.1430233 35.3875,32.351938 34.853125,32.5608527 C33.6953125,33.0085271 32.478125,33.4562016 31.23125,33.9337209 C29.984375,34.3813953 28.796875,34.8290698 27.6390625,35.2767442 L27.66875,35.2468992 C27.1640625,35.455814 26.71875,35.5751938 26.3921875,35.6348837 C26.00625,35.6945736 25.65,35.6647287 25.353125,35.5751938 C25.05625,35.4856589 24.7890625,35.3364341 24.5515625,35.1275194 C24.3140625,34.9186047 24.0765625,34.65 23.809375,34.3515504 C23.571875,34.0531008 23.3046875,33.7248062 23.0078125,33.3368217 L23.0078125,33.3666667 C22.7703125,33.0682171 22.5921875,32.7399225 22.4734375,32.3817829 C22.3546875,32.0236434 22.2953125,31.575969 22.325,31.0089147 C22.3546875,30.6806202 22.384375,30.3821705 22.44375,30.053876 C24.403125,22.9806202 26.24375,15.9073643 28.084375,8.80426357 C28.2328125,8.6251938 28.321875,8.53565891 28.4703125,8.35658915 Z" id="Shape"></path>
                    <path d="M58.1875,12.4155039 C57.653125,14.2658915 57.11875,16.2356589 56.5546875,18.2651163 C55.990625,20.2945736 55.45625,22.353876 54.921875,24.4430233 C54.3875,26.5321705 53.8828125,28.501938 53.4375,30.3523256 C53.4375,30.3224806 53.4671875,30.2926357 53.4671875,30.2627907 C53.4375,30.770155 53.2890625,31.1282946 53.08125,31.3372093 C52.8734375,31.546124 52.546875,31.6953488 52.190625,31.7848837 C51.9234375,31.8445736 51.65625,31.8445736 51.359375,31.7848837 C51.0625,31.7550388 50.70625,31.7550388 50.3796875,31.6655039 C50.0234375,31.575969 49.6375,31.4267442 49.3109375,31.3372093 C48.984375,31.2476744 48.6875,31.1282946 48.45,31.0089147 C48.2125,30.8596899 48.0046875,30.6806202 47.85625,30.4418605 C47.7078125,30.2031008 47.6484375,29.8748062 47.6484375,29.4271318 C47.6484375,29.1585271 47.7078125,28.8600775 47.796875,28.472093 L47.796875,28.501938 C47.9453125,27.7856589 48.09375,26.979845 48.3015625,26.0248062 C48.509375,25.0996124 48.7171875,24.0848837 48.984375,22.9806202 C48.4203125,23.1596899 47.85625,23.3387597 47.2921875,23.5178295 C46.728125,23.6968992 46.19375,23.875969 45.659375,24.0550388 C45.303125,25.2488372 45.00625,26.3829457 44.7390625,27.4573643 C44.471875,28.5317829 44.2046875,29.5465116 43.996875,30.5313953 C43.878125,30.9790698 43.7890625,31.3968992 43.7,31.7251938 C43.6109375,32.0534884 43.521875,32.351938 43.4328125,32.5906977 C43.3140625,32.8294574 43.1953125,33.0085271 43.0171875,33.1577519 C42.8390625,33.3069767 42.63125,33.3965116 42.3640625,33.4263566 C42.2453125,33.4562016 42.1265625,33.4562016 42.0078125,33.4562016 C41.859375,33.4562016 41.7109375,33.4562016 41.5328125,33.4263566 C41.0578125,33.2771318 40.6125,33.1577519 40.1671875,33.0682171 C39.721875,32.9786822 39.3359375,32.8294574 38.9796875,32.6802326 C38.6234375,32.5310078 38.35625,32.322093 38.1484375,32.0534884 C37.940625,31.7848837 37.8515625,31.4267442 37.88125,30.9492248 C37.88125,30.6209302 37.9703125,30.2627907 38.0890625,29.8151163 C38.59375,28.1736434 39.128125,26.3232558 39.6328125,24.3236434 C40.1375,22.324031 40.6421875,20.2647287 41.146875,18.2054264 C41.6515625,16.1162791 42.1265625,14.0868217 42.571875,12.0872093 C43.0171875,10.0875969 43.4625,8.26705426 43.8484375,6.65542636 C44.0265625,6.14806202 44.2046875,5.78992248 44.4125,5.58100775 C44.6203125,5.37209302 44.8875,5.22286822 45.24375,5.19302326 C45.3921875,5.16317829 45.659375,5.22286822 45.9859375,5.28255814 C46.3125,5.37209302 46.6984375,5.49147287 47.0546875,5.61085271 C47.440625,5.76007752 47.8265625,5.90930233 48.1828125,6.08837209 C48.56875,6.26744186 48.865625,6.44651163 49.1328125,6.6255814 L49.103125,6.59573643 C49.459375,6.83449612 49.7265625,7.07325581 49.875,7.28217054 C50.0234375,7.52093023 50.1125,7.78953488 50.1125,8.11782946 C50.1125,8.41627907 50.053125,8.74457364 49.934375,9.10271318 C49.6078125,10.1174419 49.2515625,11.2813953 48.865625,12.6542636 C48.45,14.0271318 48.034375,15.4895349 47.5890625,17.1011628 C48.0046875,17.0116279 48.45,16.8922481 48.865625,16.8027132 C49.28125,16.7131783 49.696875,16.6236434 50.0828125,16.5042636 L50.053125,16.5042636 C50.2609375,16.4744186 50.35,16.4445736 50.5578125,16.4147287 C51.0921875,14.3852713 51.6265625,12.4155039 52.13125,10.4755814 C52.6359375,8.53565891 53.1109375,6.80465116 53.5859375,5.28255814 C53.734375,4.74534884 53.9125,4.3872093 54.15,4.14844961 C54.3875,3.90968992 54.6546875,3.76046512 55.0109375,3.73062016 C55.278125,3.70077519 55.6046875,3.73062016 55.9609375,3.82015504 L55.93125,3.82015504 C56.2875,3.87984496 56.703125,3.99922481 57.1484375,4.17829457 C57.59375,4.32751938 58.009375,4.53643411 58.3953125,4.7751938 C58.78125,5.01395349 59.1078125,5.28255814 59.375,5.58100775 C59.6421875,5.87945736 59.7609375,6.17790698 59.7609375,6.47635659 C59.7609375,6.74496124 59.7015625,7.07325581 59.6125,7.43139535 C59.2265625,8.92364341 58.721875,10.5651163 58.1875,12.4155039 Z" id="Shape"></path>
                    <path d="M69.646875,22.7418605 C69.6171875,22.5329457 69.6171875,22.4135659 69.5875,22.1748062 C68.3703125,22.5627907 67.153125,22.9507752 65.9953125,23.3387597 C64.8078125,23.7267442 63.353125,24.0848837 62.878125,24.5325581 C62.58125,24.8310078 62.3140625,25.7263566 62.046875,26.4127907 C61.7796875,27.0693798 61.5125,27.696124 61.2453125,28.2631783 C60.978125,28.8302326 60.7109375,29.3077519 60.44375,29.7255814 C60.1765625,30.1135659 59.8796875,30.3523256 59.553125,30.4120155 C59.25625,30.4717054 58.9296875,30.4418605 58.603125,30.3523256 C58.484375,30.2926357 58.3953125,30.2926357 58.2765625,30.2329457 C57.9796875,30.1434109 57.6828125,30.024031 57.415625,29.9046512 C57.11875,29.7852713 56.88125,29.6360465 56.64375,29.4868217 C56.40625,29.3375969 56.228125,29.1286822 56.0796875,28.9197674 C55.93125,28.7108527 55.871875,28.4422481 55.871875,28.1139535 C55.871875,27.9050388 55.9015625,27.6662791 55.93125,27.3976744 C55.990625,27.1290698 56.0796875,26.8306202 56.1984375,26.4724806 C56.821875,24.8906977 57.5640625,23.1 58.425,21.1003876 C59.2859375,19.1007752 60.20625,17.0713178 61.15625,15.0418605 C62.10625,12.9825581 63.0265625,11.0127907 63.9765625,9.10271318 C64.896875,7.19263566 65.7578125,5.55116279 66.5296875,4.14844961 C66.8265625,3.61124031 67.1828125,3.16356589 67.56875,2.80542636 C67.984375,2.41744186 68.5484375,2.20852713 69.2609375,2.11899225 C70.478125,1.9996124 71.4875,1.9996124 72.2890625,2.11899225 C73.1203125,2.23837209 73.8328125,2.3875969 74.45625,2.53682171 C74.634375,2.56666667 74.753125,2.59651163 74.93125,2.62635659 C75.465625,2.7755814 75.8515625,2.98449612 76.059375,3.28294574 C76.2671875,3.55155039 76.35625,3.93953488 76.3859375,4.41705426 L76.3859375,4.71550388 C76.3859375,4.80503876 76.3859375,4.89457364 76.35625,4.98410853 L76.35625,4.95426357 C76.2375,6.17790698 76.1484375,7.64031008 76.0890625,9.31162791 C76.0296875,10.9829457 75.9703125,12.7736434 75.9109375,14.6837209 C75.8515625,16.5639535 75.821875,18.503876 75.7921875,20.4736434 C75.7625,22.4434109 75.7328125,24.3534884 75.7328125,26.0844961 C75.7328125,26.6515504 75.64375,27.0992248 75.4359375,27.3678295 C75.228125,27.6364341 74.7828125,27.8155039 74.1,27.9050388 C73.5953125,27.9945736 73.1203125,28.0542636 72.675,28.0841085 C72.2296875,28.1139535 71.784375,28.0841085 71.309375,27.9647287 C71.309375,27.9647287 71.3390625,27.9647287 71.3390625,27.9945736 C70.775,27.9050388 70.3890625,27.725969 70.18125,27.4573643 C69.9734375,27.1887597 69.8546875,26.6813953 69.7953125,25.9352713 C69.70625,25.0399225 69.6765625,23.9655039 69.646875,22.7418605 Z M68.1625,13.3705426 C67.56875,14.5643411 66.9453125,15.8178295 66.3515625,17.1310078 C66.915625,16.951938 67.45,16.8027132 67.984375,16.6534884 C68.51875,16.5341085 69.053125,16.3848837 69.6171875,16.2655039 C69.646875,15.1910853 69.6765625,14.1166667 69.7359375,13.072093 C69.765625,12.0275194 69.825,10.9829457 69.884375,9.96821705 C69.3203125,11.0426357 68.75625,12.1468992 68.1625,13.3705426 Z" id="Shape"></path>
                    <path d="M88.4984375,6.17790698 C88.5578125,6.68527132 88.646875,7.25232558 88.7359375,7.87906977 C88.825,8.50581395 88.9140625,9.1624031 89.003125,9.84883721 C89.121875,10.5352713 89.2109375,11.2515504 89.3296875,11.9379845 C89.715625,10.1174419 90.1015625,8.35658915 90.4875,6.65542636 C90.903125,4.95426357 91.2890625,3.40232558 91.675,1.9996124 C91.9125,1.13410853 92.4171875,0.656589147 93.1890625,0.626744186 C93.278125,0.626744186 93.396875,0.626744186 93.515625,0.656589147 C93.634375,0.686434109 93.7828125,0.686434109 93.93125,0.71627907 C94.1984375,0.775968992 94.525,0.865503876 94.940625,0.984883721 C95.35625,1.10426357 95.7421875,1.28333333 96.1578125,1.4624031 C96.54375,1.67131783 96.9,1.91007752 97.196875,2.20852713 C97.49375,2.50697674 97.671875,2.83527132 97.671875,3.22325581 L97.671875,3.67093023 C97.6421875,3.82015504 97.6125,3.99922481 97.553125,4.17829457 C97.3453125,5.01395349 97.1078125,5.90930233 96.8703125,6.95387597 C96.6328125,7.96860465 96.3953125,9.04302326 96.128125,10.1771318 C95.8609375,11.3112403 95.59375,12.4751938 95.35625,13.6689922 C95.0890625,14.8627907 94.8515625,16.0565891 94.584375,17.2205426 C94.346875,18.4143411 94.0796875,19.5484496 93.8421875,20.6527132 C93.6046875,21.7569767 93.396875,22.8015504 93.21875,23.7565891 L93.2484375,23.7267442 C93.1,24.5922481 92.5953125,25.0697674 91.7046875,25.1891473 C91.1109375,25.2488372 90.546875,25.2189922 89.953125,25.0996124 C89.359375,24.9802326 88.7953125,24.8608527 88.290625,24.7116279 C87.7265625,24.5624031 87.221875,24.1147287 86.8359375,23.4879845 C86.45,22.8612403 86.09375,22.1151163 85.796875,21.2197674 C85.5,20.3244186 85.2328125,19.3395349 84.9953125,18.2352713 C84.7578125,17.1310078 84.5203125,15.9968992 84.3125,14.8329457 C84.075,15.8476744 83.8375,16.8325581 83.6296875,17.8174419 C83.3921875,18.8023256 83.184375,19.7573643 82.9765625,20.6825581 C82.76875,21.6077519 82.5609375,22.4732558 82.3828125,23.3089147 C82.2046875,24.1445736 82.0859375,24.8906977 81.9375,25.5174419 C81.8484375,25.8755814 81.7,26.203876 81.521875,26.3829457 C81.3734375,26.5918605 81.10625,26.7112403 80.7796875,26.7709302 C80.6609375,26.8007752 80.5421875,26.8007752 80.4234375,26.8007752 C80.275,26.8007752 80.1265625,26.8007752 79.9484375,26.7709302 C79.8296875,26.7709302 79.7703125,26.7410853 79.6515625,26.7410853 C79.2359375,26.6813953 78.8203125,26.5918605 78.375,26.5321705 C77.959375,26.4426357 77.5734375,26.2934109 77.2171875,26.0844961 C77.2171875,26.0844961 77.246875,26.0844961 77.246875,26.1143411 C76.890625,25.9352713 76.653125,25.7562016 76.475,25.5174419 C76.3265625,25.2786822 76.2375,24.9503876 76.2078125,24.5624031 C76.2078125,24.2639535 76.2375,23.9356589 76.296875,23.5476744 L76.2671875,23.5775194 C76.35625,23.0403101 76.475,22.2643411 76.6828125,21.2496124 C76.8609375,20.2348837 77.0984375,19.1306202 77.365625,17.8771318 C77.6328125,16.6236434 77.9,15.3104651 78.196875,13.9375969 C78.49375,12.5647287 78.790625,11.1918605 79.1171875,9.81899225 C79.44375,8.47596899 79.740625,7.19263566 80.0375,5.96899225 C80.334375,4.74534884 80.6015625,3.70077519 80.86875,2.80542636 C81.165625,1.88023256 81.7,1.37286822 82.5015625,1.31317829 C82.7390625,1.28333333 83.0359375,1.31317829 83.3921875,1.37286822 C83.7484375,1.43255814 84.1046875,1.52209302 84.5203125,1.61162791 C84.90625,1.73100775 85.2921875,1.8503876 85.678125,1.96976744 C86.0640625,2.08914729 86.390625,2.23837209 86.6875,2.3875969 L86.6578125,2.3875969 C87.2515625,2.59651163 87.696875,2.89496124 87.934375,3.25310078 C88.171875,3.61124031 88.35,4.17829457 88.409375,4.89457364 C88.3796875,5.22286822 88.409375,5.64069767 88.4984375,6.17790698 Z" id="Shape"></path>
                    <path d="M107.676563,5.01395349 C107.379688,5.01395349 107.053125,5.19302326 106.696875,5.58100775 C106.310937,5.96899225 105.925,6.47635659 105.539063,7.13294574 C105.123438,7.78953488 104.7375,8.53565891 104.351563,9.37131783 C103.965625,10.2368217 103.579688,11.1023256 103.253125,12.0573643 C103.223438,12.0872093 103.223438,12.1170543 103.19375,12.1468992 C103.164063,12.1767442 103.164063,12.2065891 103.134375,12.2364341 C103.3125,12.1170543 103.55,11.9976744 103.876563,11.9379845 C104.173438,11.8782946 104.5,11.7887597 104.85625,11.7290698 C104.826563,11.7290698 104.796875,11.7589147 104.767188,11.7589147 C104.796875,11.7290698 104.85625,11.7290698 104.885938,11.7290698 C104.945313,11.7290698 105.004688,11.7290698 105.064063,11.6992248 C105.865625,11.520155 106.6375,11.3709302 107.409375,11.2217054 C108.18125,11.0724806 108.89375,11.0127907 109.576563,11.0127907 C109.9625,11.0127907 110.289063,11.0724806 110.585938,11.1918605 C110.882813,11.3112403 111.15,11.4604651 111.417188,11.6693798 C111.684375,11.8782946 111.921875,12.1468992 112.159375,12.4155039 C112.396875,12.7139535 112.634375,13.0422481 112.871875,13.4003876 L112.871875,13.3705426 C113.05,13.6093023 113.198438,13.8182171 113.2875,14.0569767 C113.376563,14.2658915 113.435938,14.5046512 113.465625,14.7434109 C113.495313,14.9523256 113.465625,15.1612403 113.40625,15.370155 C113.346875,15.5790698 113.2875,15.8178295 113.198438,16.0864341 C112.753125,17.3399225 112.248438,18.444186 111.654688,19.4589147 C111.060938,20.4736434 110.407813,21.3093023 109.695313,22.0554264 C108.982813,22.7717054 108.18125,23.3387597 107.35,23.7565891 C106.51875,24.1744186 105.628125,24.4131783 104.678125,24.4728682 C103.935938,24.5325581 103.134375,24.5027132 102.332813,24.3833333 C101.501563,24.2937984 100.729688,24.0848837 99.9875,23.7864341 C99.2453125,23.4879845 98.5625,23.1 97.96875,22.5926357 C97.375,22.0852713 96.9296875,21.4585271 96.6921875,20.6825581 L96.6921875,20.7124031 C96.4546875,20.2348837 96.2765625,19.6976744 96.1578125,19.1306202 C96.0390625,18.5635659 95.95,17.9666667 95.9203125,17.3100775 C95.83125,15.9372093 95.95,14.4449612 96.2765625,12.8631783 C96.603125,11.2813953 97.078125,9.72945736 97.7015625,8.20736434 C98.325,6.68527132 99.096875,5.28255814 100.017188,3.99922481 C100.9375,2.71589147 101.976563,1.67131783 103.104688,0.835658915 C103.104688,0.835658915 103.104688,0.865503876 103.075,0.865503876 C103.55,0.537209302 104.054688,0.298449612 104.589063,0.179069767 C105.153125,0.0596899225 105.657813,0.0298449612 106.1625,0.0298449612 C106.6375,0.0298449612 107.171875,0.0895348837 107.676563,0.208914729 C108.210938,0.328294574 108.715625,0.447674419 109.220313,0.626744186 C109.725,0.805813953 110.229688,1.01472868 110.675,1.28333333 C111.209375,1.49224806 111.625,1.79069767 111.98125,2.08914729 C112.575,2.59651163 113.020313,3.10387597 113.317188,3.61124031 C113.614063,4.11860465 113.792188,4.74534884 113.910938,5.46162791 C113.940625,5.64069767 113.940625,5.7003876 113.940625,5.87945736 C113.970313,6.20775194 114,6.56589147 114,6.95387597 C114,7.34186047 114,7.72984496 113.970313,8.0879845 C113.940625,8.47596899 113.910938,8.83410853 113.88125,9.1624031 C113.851562,9.52054264 113.792187,9.78914729 113.7625,10.0577519 L113.7625,10.1174419 C113.64375,10.5054264 113.495313,10.803876 113.317188,10.9531008 C113.139063,11.1321705 112.842188,11.1918605 112.367188,11.1918605 C112.307813,11.1918605 112.248438,11.1918605 112.189063,11.1620155 C112.129688,11.1620155 112.040625,11.1321705 112.010937,11.1321705 C110.615625,10.9232558 109.60625,10.5054264 109.0125,9.81899225 C108.389062,9.13255814 108.032812,8.26705426 107.94375,7.19263566 C107.94375,7.04341085 107.914062,6.95387597 107.94375,6.86434109 C107.94375,6.7748062 107.94375,6.68527132 107.973437,6.59573643 C107.94375,6.20775194 107.914062,5.99883721 107.884375,5.61085271 C107.884375,5.58100775 107.884375,5.58100775 107.854687,5.55116279 C107.854687,5.52131783 107.825,5.52131783 107.825,5.49147287 L107.825,5.46162791 C107.795312,5.3124031 107.765625,5.22286822 107.765625,5.13333333 C107.765625,5.10348837 107.735938,5.04379845 107.676563,5.01395349 C107.676563,4.98410853 107.676563,4.98410853 107.676563,5.01395349 C107.676563,4.98410853 107.676563,4.98410853 107.676563,5.01395349 Z M103.935938,15.7581395 C103.43125,15.2806202 103.045313,14.5344961 102.778125,13.5496124 C102.570313,14.2658915 102.451563,15.0120155 102.392188,15.7282946 C102.332813,16.4445736 102.303125,17.1011628 102.3625,17.727907 C102.421875,18.3844961 102.510938,18.8918605 102.689063,19.25 C102.867188,19.6081395 103.075,19.7872093 103.342188,19.7872093 C103.55,19.7872093 103.7875,19.6678295 103.995313,19.5186047 C104.232813,19.3395349 104.440625,19.1007752 104.678125,18.8023256 C104.915625,18.503876 105.153125,18.1755814 105.390625,17.7875969 C105.628125,17.3996124 105.835938,16.9817829 106.073438,16.5341085 C105.153125,16.5042636 104.440625,16.2356589 103.935938,15.7581395 Z" id="Shape"></path>
                    <path d="M9.9453125,59.0333333 C9.9453125,57.6007752 9.9453125,56.0786822 9.975,54.5267442 C9.5890625,55.7503876 9.203125,56.974031 8.846875,58.1976744 C8.490625,59.4213178 8.134375,60.5852713 7.8078125,61.7492248 C7.48125,62.8833333 7.184375,63.9875969 6.8875,65.0321705 C6.6203125,66.0767442 6.3828125,67.0616279 6.115625,67.8674419 C5.9375,68.4344961 5.7296875,68.8821705 5.4921875,69.1507752 C5.2546875,69.4193798 4.9578125,69.5984496 4.571875,69.6282946 C4.096875,69.6581395 3.5921875,69.6282946 3.0875,69.4790698 C2.5828125,69.329845 2.1078125,69.1209302 1.6625,68.8224806 C1.2171875,68.524031 0.890625,68.1658915 0.6234375,67.777907 C0.35625,67.3600775 0.2375,66.9124031 0.2671875,66.4348837 C0.296875,66.1065891 0.35625,65.7782946 0.415625,65.479845 L0.415625,65.5096899 C0.6234375,64.5546512 0.890625,63.4205426 1.2171875,62.1073643 C1.5734375,60.794186 1.959375,59.3914729 2.375,57.8693798 C2.790625,56.3771318 3.2359375,54.8251938 3.7109375,53.2135659 C4.1859375,51.601938 4.63125,50.05 5.10625,48.5577519 C5.5515625,47.0655039 5.996875,45.6329457 6.4421875,44.3197674 C6.8578125,43.0065891 7.24375,41.8724806 7.5703125,40.9174419 C7.8375,40.2310078 8.134375,39.7236434 8.43125,39.4550388 C8.728125,39.1864341 9.14375,39.0073643 9.61875,39.0073643 C10.6578125,38.9476744 11.5484375,39.0372093 12.3203125,39.305814 C13.0921875,39.5445736 13.7453125,39.7833333 14.3390625,40.051938 L14.309375,40.051938 C14.7546875,40.2310078 15.1109375,40.4399225 15.3484375,40.6488372 C15.5859375,40.8577519 15.7640625,41.0965116 15.8828125,41.3949612 C16.0015625,41.6635659 16.0609375,41.9918605 16.0609375,42.35 C16.090625,42.7081395 16.090625,43.125969 16.090625,43.6034884 C16.0609375,43.7228682 16.0609375,43.8422481 16.03125,44.0213178 L16.03125,44.7674419 L16.03125,46.0209302 L16.03125,48.0802326 C16.03125,48.9158915 16.03125,49.9306202 16.0015625,51.1542636 C16.3875,50.4081395 16.7734375,49.6620155 17.1890625,48.8562016 C17.6046875,48.0503876 18.0203125,47.2744186 18.4359375,46.4686047 C18.8515625,45.6627907 19.2671875,44.8868217 19.6828125,44.1406977 C20.0984375,43.3945736 20.484375,42.6782946 20.8703125,41.9918605 L20.8703125,42.0217054 C21.2859375,41.2457364 21.6421875,40.5891473 21.9390625,40.022093 C22.2359375,39.4550388 22.5328125,39.0073643 22.8296875,38.6193798 C23.1265625,38.2313953 23.4234375,37.9627907 23.7203125,37.753876 C24.0171875,37.5748062 24.3734375,37.4554264 24.759375,37.3957364 C24.9671875,37.3658915 25.175,37.3658915 25.3828125,37.3957364 C25.590625,37.4255814 25.828125,37.4554264 26.0953125,37.5151163 L26.065625,37.5151163 C26.5109375,37.5748062 27.075,37.6643411 27.728125,37.7837209 C28.38125,37.9031008 28.975,38.0523256 29.56875,38.2612403 C30.1328125,38.470155 30.6375,38.7387597 31.0234375,39.0670543 C31.4390625,39.3953488 31.6171875,39.8131783 31.6171875,40.3205426 C31.6171875,40.4996124 31.5875,40.6786822 31.5578125,40.8577519 C31.528125,41.0666667 31.46875,41.2755814 31.35,41.5143411 L31.35,41.4844961 C31.053125,42.4395349 30.696875,43.6034884 30.3109375,44.8868217 C29.925,46.2 29.509375,47.6027132 29.09375,49.0651163 C28.678125,50.5275194 28.2328125,52.0496124 27.7875,53.6313953 C27.3421875,55.1833333 26.896875,56.7054264 26.48125,58.1678295 C26.065625,59.6302326 25.6796875,60.9732558 25.353125,62.2267442 C24.996875,63.4802326 24.759375,64.5844961 24.4921875,65.420155 C24.3734375,65.8379845 24.165625,66.225969 23.9875,66.4945736 C23.809375,66.7631783 23.453125,66.9422481 22.978125,67.0317829 C22.7703125,67.0616279 22.503125,67.0616279 22.20625,67.0616279 C21.909375,67.0317829 21.6125,67.001938 21.2859375,66.9422481 C20.959375,66.8825581 20.6625,66.7930233 20.365625,66.7034884 C20.06875,66.6139535 19.83125,66.4945736 19.653125,66.3751938 L19.6828125,66.3751938 C18.9109375,65.9872093 18.5546875,65.3306202 18.584375,64.4651163 C18.6140625,64.1368217 18.64375,63.8085271 18.703125,63.5100775 L18.703125,63.5399225 C18.7921875,63.0325581 18.940625,62.4356589 19.0890625,61.7193798 C19.2671875,61.0031008 19.4453125,60.2271318 19.653125,59.3616279 C19.8609375,58.496124 20.0984375,57.6007752 20.365625,56.6457364 C20.6328125,55.6906977 20.9,54.7356589 21.1671875,53.7507752 C20.6625,54.7356589 20.1578125,55.7503876 19.6234375,56.7651163 C19.11875,57.779845 18.6140625,58.7647287 18.1390625,59.7197674 C17.6640625,60.6748062 17.21875,61.570155 16.803125,62.405814 C16.3875,63.2414729 16.0609375,63.9875969 15.7640625,64.6143411 C15.6453125,64.8829457 15.5265625,65.1217054 15.4078125,65.3007752 C15.2890625,65.479845 15.2,65.6589147 15.1109375,65.7782946 C15.021875,65.8976744 14.903125,66.0170543 14.7546875,66.0767442 C14.60625,66.1364341 14.428125,66.196124 14.2203125,66.225969 C13.953125,66.255814 13.7453125,66.255814 13.5375,66.225969 C13.0328125,66.1662791 12.5875,66.1065891 12.171875,66.0170543 C11.75625,65.9275194 11.4,65.8081395 11.103125,65.5992248 C10.80625,65.3903101 10.56875,65.0918605 10.390625,64.703876 C10.2125,64.3158915 10.09375,63.7488372 10.034375,63.0325581 C10.0046875,61.7790698 9.9453125,60.4658915 9.9453125,59.0333333 Z" id="Shape"></path>
                    <path d="M47.7078125,37.5449612 C47.975,37.9627907 48.1828125,38.4104651 48.33125,38.9178295 C48.4796875,39.4251938 48.56875,39.9624031 48.5984375,40.5593023 C48.6578125,41.1263566 48.6578125,41.7531008 48.6578125,42.4395349 C48.628125,43.5437984 48.5390625,44.7972868 48.33125,46.229845 C48.1234375,47.6624031 47.8265625,49.1248062 47.4109375,50.6170543 C46.9953125,52.1093023 46.490625,53.6313953 45.896875,55.0937984 C45.2734375,56.5860465 44.5609375,57.9589147 43.7296875,59.1825581 C42.8984375,60.4062016 41.978125,61.4806202 40.9390625,62.346124 C39.9,63.2116279 38.771875,63.8085271 37.4953125,64.0771318 C37.0796875,64.1666667 36.6640625,64.2263566 36.2484375,64.2562016 L36.278125,64.2562016 C33.7546875,64.5248062 31.9140625,64.0472868 30.6671875,62.7937984 C29.45,61.5403101 28.915625,59.4213178 29.034375,56.4069767 C29.09375,54.8550388 29.33125,53.2135659 29.7171875,51.4825581 C30.103125,49.7515504 30.6671875,48.0503876 31.35,46.3193798 C32.0328125,44.6182171 32.8640625,42.9767442 33.84375,41.4248062 C34.8234375,39.8728682 35.8921875,38.5 37.05,37.3062016 C37.6140625,36.7689922 38.2375,36.3213178 38.9796875,35.9333333 C39.6921875,35.5453488 40.375,35.3065891 41.028125,35.2170543 C41.5328125,35.1275194 42.0375,35.0976744 42.571875,35.1275194 C43.10625,35.1573643 43.6109375,35.2468992 44.115625,35.3662791 C44.6203125,35.4856589 45.065625,35.6348837 45.5109375,35.8139535 C45.95625,35.9930233 46.3125,36.201938 46.5796875,36.3810078 C47.084375,36.7689922 47.440625,37.1271318 47.7078125,37.5449612 Z M41.8890625,40.9771318 C41.5921875,41.0368217 41.2359375,41.3352713 40.8203125,41.9023256 C40.4046875,42.4693798 39.959375,43.155814 39.5140625,43.9914729 C39.06875,44.8271318 38.6234375,45.7523256 38.178125,46.7372093 C37.7328125,47.751938 37.3765625,48.7069767 37.05,49.6321705 C36.634375,50.796124 36.3078125,51.9899225 36.040625,53.2135659 C35.7734375,54.4372093 35.625,55.5414729 35.5953125,56.5263566 C35.565625,57.2426357 35.625,57.8096899 35.74375,58.2573643 C35.8625,58.7050388 36.0703125,58.9139535 36.396875,58.8244186 C36.69375,58.7647287 37.05,58.4662791 37.4359375,57.9887597 C37.821875,57.4813953 38.2375,56.8248062 38.6828125,56.0189922 C39.128125,55.2131783 39.54375,54.2879845 39.959375,53.2434109 C40.375,52.1988372 40.7609375,51.0945736 41.0875,49.9604651 C41.4140625,48.8263566 41.68125,47.6325581 41.91875,46.4387597 C42.1265625,45.2449612 42.2453125,44.0810078 42.275,42.9767442 C42.275,42.379845 42.275,41.9023256 42.215625,41.5143411 C42.1859375,41.2158915 42.0671875,41.0069767 41.8890625,40.9771318 L41.8890625,40.9771318 Z" id="Shape"></path>
                    <path d="M69.2015625,35.1573643 C68.99375,35.3662791 68.6078125,35.5453488 68.0734375,35.6945736 C67.45,35.8736434 66.7671875,36.1124031 66.084375,36.2914729 C65.4015625,36.4705426 64.6890625,36.6794574 63.9171875,36.9182171 C63.471875,38.5596899 62.996875,40.2608527 62.521875,42.0813953 C62.0171875,43.901938 61.5421875,45.7224806 61.0375,47.5430233 C60.5328125,49.3934109 60.0578125,51.2139535 59.6125,53.0344961 C59.1671875,54.8550388 58.721875,56.5860465 58.3359375,58.1976744 L58.365625,58.1678295 C58.2765625,58.6453488 58.0984375,58.9736434 57.890625,59.2124031 C57.653125,59.4511628 57.3859375,59.6003876 57.0296875,59.6899225 C56.7625,59.7496124 56.4359375,59.7794574 56.05,59.7496124 C55.6640625,59.7197674 55.2484375,59.6899225 54.8625,59.6302326 L54.8921875,59.6302326 C54.15,59.5406977 53.5265625,59.3616279 53.0515625,59.1228682 C52.5765625,58.8841085 52.3390625,58.3767442 52.3390625,57.6306202 C52.3390625,57.3918605 52.3984375,57.0635659 52.4875,56.6457364 L52.4875,56.6755814 C52.665625,55.6608527 52.903125,54.4372093 53.2,53.0046512 C53.496875,51.572093 53.8234375,50.079845 54.209375,48.498062 C54.565625,46.946124 54.9515625,45.3643411 55.3671875,43.7825581 C55.7828125,42.2007752 56.16875,40.7383721 56.525,39.3655039 C55.990625,39.5744186 55.515625,39.7534884 55.1296875,39.9325581 C54.74375,40.1116279 54.3875,40.2310078 54.03125,40.2906977 C53.6453125,40.3802326 53.2890625,40.2906977 52.9921875,40.1116279 C52.6953125,39.9027132 52.428125,39.6341085 52.190625,39.275969 C51.953125,38.9178295 51.775,38.5596899 51.596875,38.1717054 C51.41875,37.7837209 51.3,37.3957364 51.18125,37.0674419 C51.1515625,36.977907 51.121875,36.9182171 51.0921875,36.8286822 L51.0921875,36.8585271 C51.0328125,36.6496124 50.9734375,36.4108527 51.003125,36.1422481 C51.003125,35.7841085 51.0921875,35.4856589 51.3,35.2767442 C51.5078125,35.0678295 51.775,34.8887597 52.13125,34.7693798 C53.1109375,34.4112403 54.1796875,34.0232558 55.396875,33.6054264 C56.6140625,33.2174419 57.8609375,32.8294574 59.1078125,32.4713178 C60.3546875,32.1131783 61.6015625,31.7550388 62.7890625,31.4565891 C64.00625,31.1282946 65.1046875,30.8596899 66.0546875,30.6806202 C66.61875,30.5612403 67.0640625,30.5612403 67.3609375,30.6507752 C67.6578125,30.7403101 67.925,30.8895349 68.1328125,31.1282946 C68.3109375,31.3073643 68.459375,31.546124 68.6078125,31.8147287 C68.75625,32.0534884 68.9046875,32.351938 69.053125,32.6205426 C69.171875,32.9189922 69.290625,33.1875969 69.3796875,33.4860465 C69.46875,33.7844961 69.4984375,34.0531008 69.4984375,34.3217054 C69.4984375,34.65 69.409375,34.9484496 69.2015625,35.1573643 Z" id="Shape"></path>
                    <path d="M76.35625,30.8596899 C76.7421875,31.0686047 77.009375,31.2476744 77.1578125,31.4565891 C77.30625,31.6655039 77.3953125,31.9042636 77.425,32.2325581 C77.425,32.5011628 77.3953125,32.8294574 77.2765625,33.1875969 C77.009375,34.0232558 76.7421875,35.0081395 76.4453125,36.1124031 C76.1484375,37.2166667 75.821875,38.4403101 75.4953125,39.6937984 C75.16875,40.9771318 74.8421875,42.2903101 74.4859375,43.6631783 C74.159375,45.0360465 73.8328125,46.3790698 73.50625,47.6922481 C73.1796875,49.0054264 72.8828125,50.2887597 72.5859375,51.5124031 C72.2890625,52.7360465 72.0515625,53.8403101 71.8140625,54.8550388 C71.6953125,55.3027132 71.546875,55.6310078 71.3984375,55.8399225 C71.25,56.0488372 70.9828125,56.198062 70.596875,56.2875969 C70.5078125,56.3174419 70.3890625,56.3174419 70.240625,56.3472868 L69.7953125,56.3472868 C69.35,56.3174419 68.9046875,56.2577519 68.459375,56.198062 C68.0140625,56.1383721 67.628125,56.0488372 67.271875,55.9294574 C66.915625,55.8100775 66.61875,55.6011628 66.4109375,55.3624031 C66.203125,55.1236434 66.084375,54.7655039 66.084375,54.3476744 C66.084375,54.1686047 66.084375,53.9895349 66.1140625,53.870155 C66.14375,53.7507752 66.14375,53.6015504 66.203125,53.4224806 C66.321875,52.6465116 66.4703125,51.6914729 66.678125,50.5573643 C66.8859375,49.3934109 67.153125,48.1399225 67.4203125,46.7968992 C67.7171875,45.453876 68.0140625,44.0511628 68.340625,42.5887597 C68.6671875,41.1263566 68.99375,39.7236434 69.290625,38.3507752 C69.6171875,36.977907 69.9140625,35.6945736 70.2109375,34.5007752 C70.5078125,33.3069767 70.7453125,32.2624031 71.0125,31.4267442 C71.1609375,30.9193798 71.36875,30.5313953 71.60625,30.2926357 C71.8140625,30.053876 72.1109375,29.9046512 72.4671875,29.8449612 C72.7046875,29.8151163 73.0015625,29.8151163 73.328125,29.8449612 C73.6546875,29.8748062 74.040625,29.9643411 74.396875,30.053876 C74.7828125,30.1434109 75.1390625,30.2627907 75.4953125,30.3821705 C75.7921875,30.5910853 76.0890625,30.7403101 76.35625,30.8596899 C76.35625,30.8895349 76.35625,30.8895349 76.35625,30.8596899 Z" id="Shape"></path>
                    <path d="M79.8296875,30.1135659 C80.5421875,29.8151163 81.34375,29.4868217 82.2046875,29.1883721 C83.065625,28.8600775 83.95625,28.5616279 84.90625,28.2631783 C85.8265625,27.9647287 86.80625,27.696124 87.7859375,27.4275194 C88.765625,27.1589147 89.7453125,26.95 90.6953125,26.8007752 C90.7546875,26.8007752 90.784375,26.8007752 90.84375,26.7709302 C91.4375,26.7112403 91.8828125,26.7709302 92.209375,26.95 C92.5359375,27.1290698 92.803125,27.4573643 92.98125,27.9050388 L92.98125,27.8751938 C93.1890625,28.2631783 93.3375,28.5616279 93.4265625,28.8302326 C93.515625,29.0988372 93.6046875,29.3674419 93.6640625,29.6360465 C93.6640625,29.6360465 93.634375,29.6360465 93.634375,29.6062016 C93.7234375,29.8151163 93.7828125,30.053876 93.7828125,30.2926357 C93.8125,30.770155 93.7234375,31.1282946 93.515625,31.3372093 C93.3078125,31.546124 92.8921875,31.7550388 92.2984375,31.9042636 C91.3484375,32.1430233 90.36875,32.351938 89.359375,32.6205426 C88.35,32.8891473 86.5984375,33.098062 86.153125,33.5158915 C85.915625,33.7546512 85.7375,34.8290698 85.5296875,35.5453488 C85.321875,36.2616279 85.084375,37.0077519 84.8765625,37.724031 C85.678125,37.4852713 86.4796875,37.3062016 87.28125,37.1569767 C87.3703125,37.1569767 87.4,37.1271318 87.4890625,37.1271318 C88.0234375,37.0375969 88.46875,37.0375969 88.765625,37.1569767 C89.0921875,37.2763566 89.359375,37.5151163 89.596875,37.9329457 L89.596875,37.9031008 C89.834375,38.2910853 90.0125,38.6492248 90.13125,38.9775194 C90.25,39.3356589 90.3390625,39.6937984 90.4578125,40.051938 C90.4578125,40.051938 90.428125,40.051938 90.428125,40.022093 C90.5171875,40.2906977 90.5765625,40.4697674 90.5765625,40.6488372 C90.5765625,40.9472868 90.4875,41.2158915 90.2796875,41.4248062 C90.071875,41.6337209 89.8046875,41.8426357 89.4484375,41.9918605 C89.121875,42.1709302 88.70625,42.320155 88.2609375,42.4395349 C87.815625,42.5887597 87.340625,42.7379845 86.865625,42.8872093 L86.8953125,42.8872093 C86.1828125,43.155814 85.5,43.4244186 84.846875,43.6631783 C84.19375,43.901938 83.1546875,44.1406977 82.8578125,44.4391473 C82.6796875,44.6182171 82.590625,45.2449612 82.4421875,45.6926357 C82.29375,46.1403101 82.234375,46.5282946 82.2046875,46.8864341 C82.9171875,46.6178295 83.6296875,46.3492248 84.4015625,46.1104651 C85.14375,45.8418605 85.9453125,45.6627907 86.80625,45.4837209 C87.3109375,45.394186 87.7265625,45.424031 88.053125,45.5434109 C88.3796875,45.6627907 88.6171875,45.9313953 88.825,46.3492248 L88.825,46.3193798 C89.0625,46.7073643 89.3,47.1550388 89.5078125,47.6325581 C89.715625,48.1100775 89.834375,48.5875969 89.834375,49.0651163 C89.8640625,49.4829457 89.775,49.7813953 89.5671875,49.9903101 C89.359375,50.1992248 89.003125,50.4081395 88.4390625,50.6170543 C87.2515625,51.0945736 86.0046875,51.601938 84.7578125,52.1391473 C83.48125,52.6763566 82.2640625,53.1837209 81.0765625,53.6910853 L81.10625,53.6612403 C80.571875,53.9 80.1265625,54.0790698 79.7703125,54.1387597 C79.3546875,54.2282946 78.9984375,54.2581395 78.671875,54.2282946 C78.3453125,54.1984496 78.078125,54.0790698 77.78125,53.929845 C77.5140625,53.7806202 77.246875,53.6015504 76.95,53.3627907 C76.6828125,53.124031 76.35625,52.8852713 76.0296875,52.5868217 L76.0296875,52.6166667 C75.7625,52.4077519 75.5546875,52.1391473 75.3765625,51.8406977 C75.228125,51.5422481 75.1390625,51.1542636 75.109375,50.6767442 C75.109375,50.4081395 75.1390625,50.1096899 75.16875,49.8410853 C76.6234375,43.4244186 78.078125,37.0077519 79.503125,30.5910853 C79.621875,30.3821705 79.68125,30.2926357 79.8296875,30.1135659 Z" id="Shape"></path>
                    <path d="M105.33125,30.8596899 C104.292188,31.0387597 102.540625,31.1282946 102.095313,31.5162791 C101.8875,31.6953488 101.739063,32.6205426 101.560938,33.3069767 C101.4125,33.9635659 101.204688,34.679845 100.996875,35.425969 C101.382813,35.3364341 101.76875,35.2767442 102.154688,35.2170543 C102.540625,35.1573643 102.926563,35.0976744 103.3125,35.0678295 C103.401563,35.0678295 103.460938,35.0379845 103.55,35.0379845 C104.054688,34.9782946 104.470313,35.0678295 104.796875,35.2468992 C105.123438,35.425969 105.420313,35.6945736 105.628125,35.9930233 C105.835938,36.2914729 106.014063,36.6197674 106.1625,37.0077519 C106.310938,37.3658915 106.429688,37.694186 106.51875,37.9926357 C106.51875,37.9926357 106.489063,37.9926357 106.489063,37.9627907 C106.578125,38.2015504 106.607813,38.4104651 106.607813,38.529845 C106.6375,38.9178295 106.548438,39.2162791 106.310938,39.3953488 C106.103125,39.5744186 105.717188,39.7534884 105.182813,39.8728682 C104.203125,40.1414729 103.223438,40.4399225 102.24375,40.7383721 C101.264063,41.0368217 100.284375,41.3352713 99.3046875,41.6934109 C98.91875,43.155814 98.5328125,44.5585271 98.2359375,45.9313953 C97.909375,47.3042636 97.6421875,48.527907 97.375,49.6321705 L97.375,49.5724806 C97.315625,49.9903101 97.1671875,50.2887597 96.9,50.5275194 C96.6328125,50.7662791 96.2765625,50.8856589 95.890625,50.9751938 C95.35625,51.0647287 94.7625,51.0647287 94.1390625,50.9453488 C93.515625,50.825969 92.921875,50.7364341 92.50625,50.5872093 C92.0609375,50.4379845 91.7046875,50.1992248 91.55625,49.9604651 C91.378125,49.7217054 91.2890625,49.4232558 91.259375,49.0651163 C91.259375,48.7965116 91.259375,48.498062 91.2890625,48.1697674 C91.3484375,47.6624031 91.4671875,46.9162791 91.675,45.9313953 C91.8828125,44.9465116 92.1203125,43.872093 92.4171875,42.6484496 C92.684375,41.4248062 92.98125,40.1414729 93.278125,38.7387597 C93.575,37.3658915 93.8421875,35.9930233 94.0796875,34.679845 C94.3171875,33.3666667 94.525,32.0833333 94.703125,30.9193798 C94.88125,29.7255814 94.940625,28.7108527 94.9703125,27.8453488 C95.7421875,27.5468992 96.603125,27.2782946 97.5234375,27.0096899 C98.44375,26.7410853 99.4234375,26.5023256 100.403125,26.2934109 C101.382813,26.0844961 102.392188,25.9054264 103.401563,25.7263566 C104.410938,25.5771318 105.390625,25.427907 106.340625,25.3383721 L106.51875,25.3383721 C106.99375,25.3085271 107.409375,25.427907 107.795313,25.6368217 C108.18125,25.8755814 108.507813,26.174031 108.775,26.5321705 C109.042188,26.8903101 109.279688,27.3081395 109.428125,27.725969 C109.60625,28.1437984 109.695313,28.5616279 109.725,28.9197674 C109.754688,29.3674419 109.695313,29.6957364 109.4875,29.8748062 C109.279688,30.053876 108.89375,30.2031008 108.359375,30.2926357 C107.379688,30.4717054 106.370313,30.6806202 105.33125,30.8596899 Z" id="Shape"></path>
                </g>
                <path d="M100.7,57.3620155 C100.165625,57.8992248 99.63125,58.3767442 99.0078125,58.7050388 C98.4140625,59.0631783 97.6125,59.3914729 96.603125,59.6899225 C95.7125,59.9585271 94.6734375,60.2271318 93.45625,60.4957364 C90.6953125,61.0627907 87.4890625,61.7492248 83.8078125,62.5550388 C80.1265625,63.3608527 76.178125,64.1965116 71.9921875,65.1217054 C67.80625,66.0468992 63.4421875,67.001938 58.959375,68.0166667 C54.4765625,69.0313953 50.053125,70.0162791 45.6890625,71.0011628 C41.325,71.9860465 37.1390625,72.9410853 33.1015625,73.8662791 C29.0640625,74.7914729 25.4125,75.6271318 22.1765625,76.3732558 C20.721875,76.6717054 19.6234375,76.8507752 18.9109375,76.9104651 C18.16875,76.970155 17.6046875,76.8507752 17.21875,76.5821705 C17.1296875,76.5224806 17.040625,76.4329457 16.9515625,76.3135659 C16.8625,76.194186 16.8328125,76.0449612 16.8328125,75.8658915 C16.8328125,75.3883721 16.8625,74.9108527 16.8921875,74.4333333 C16.921875,73.955814 17.1,73.5081395 17.4265625,73.0306202 C17.753125,72.5531008 18.2875,72.0755814 19.0296875,71.627907 C19.771875,71.1802326 20.840625,70.7325581 22.2359375,70.3147287 C22.8296875,70.1356589 23.3640625,69.9864341 23.7796875,69.8670543 C24.1953125,69.7476744 24.7,69.6282946 25.2640625,69.5089147 C27.7578125,68.8821705 30.875,68.0763566 34.6453125,67.1810078 C38.415625,66.255814 42.5125,65.2709302 46.90625,64.2562016 C51.3,63.2116279 55.9015625,62.1372093 60.6515625,61.0627907 C65.4015625,59.9585271 70.0328125,58.8841085 74.515625,57.8693798 C78.9984375,56.8248062 83.2140625,55.8697674 87.1328125,55.0042636 C91.0515625,54.1089147 94.4953125,53.3329457 97.2265625,52.7957364 C98.91875,52.4375969 100.195312,52.2883721 101.026562,52.2585271 C101.828125,52.2286822 102.392187,52.377907 102.71875,52.6763566 C102.926562,52.8554264 102.985937,53.153876 102.95625,53.5120155 C102.926562,53.870155 102.807812,54.2879845 102.6,54.7356589 C102.421875,55.1833333 102.154687,55.6608527 101.828125,56.1085271 C101.501562,56.5860465 101.115625,57.0337209 100.7,57.4515504 C100.640625,57.3918605 100.670312,57.3918605 100.7,57.3620155 Z" id="Shape"></path>
            </g>
        </g>
    </g>
</svg>
